<svg width="60" height="60" viewBox="0 0 60 60" fill="none" xmlns="http://www.w3.org/2000/svg">
    <rect width="60" height="60" rx="6" fill="#F8F8F8"/>
    <path d="M29.6668 28.1667C25.8835 27.1833 24.6668 26.1667 24.6668 24.5833C24.6668 22.7667 26.3502 21.5 29.1668 21.5C31.5335 21.5 32.7168 22.4 33.1502 23.8333C33.3502 24.5 33.9002 25 34.6002 25H35.1002C36.2002 25 36.9835 23.9167 36.6002 22.8833C35.9002 20.9167 34.2668 19.2833 31.6668 18.65V17.5C31.6668 16.1167 30.5502 15 29.1668 15C27.7835 15 26.6668 16.1167 26.6668 17.5V18.6C23.4335 19.3 20.8335 21.4 20.8335 24.6167C20.8335 28.4667 24.0168 30.3833 28.6668 31.5C32.8335 32.5 33.6668 33.9667 33.6668 35.5167C33.6668 36.6667 32.8502 38.5 29.1668 38.5C26.4168 38.5 25.0002 37.5167 24.4502 36.1167C24.2002 35.4667 23.6335 35 22.9502 35H22.4835C21.3668 35 20.5835 36.1333 21.0002 37.1667C21.9502 39.4833 24.1668 40.85 26.6668 41.3833V42.5C26.6668 43.8833 27.7835 45 29.1668 45C30.5502 45 31.6668 43.8833 31.6668 42.5V41.4167C34.9168 40.8 37.5002 38.9167 37.5002 35.5C37.5002 30.7667 33.4502 29.15 29.6668 28.1667Z" fill="#003469"/>
</svg>
