<svg width="36" height="36" viewBox="0 0 36 36" fill="none" xmlns="http://www.w3.org/2000/svg">
<path d="M0 8C0 4.22876 0 2.34315 1.17157 1.17157C2.34315 0 4.22876 0 8 0H28C31.7712 0 33.6569 0 34.8284 1.17157C36 2.34315 36 4.22876 36 8V28C36 31.7712 36 33.6569 34.8284 34.8284C33.6569 36 31.7712 36 28 36H8C4.22876 36 2.34315 36 1.17157 34.8284C0 33.6569 0 31.7712 0 28V8Z" fill="#F3F5F8"/>
<path d="M18 26H27" stroke="#B5B6C2" stroke-width="1.5" stroke-linecap="round" stroke-linejoin="round"/>
<path d="M22.5 9.49998C22.8978 9.10216 23.4374 8.87866 24 8.87866C24.2786 8.87866 24.5544 8.93353 24.8118 9.04014C25.0692 9.14674 25.303 9.303 25.5 9.49998C25.697 9.69697 25.8532 9.93082 25.9598 10.1882C26.0665 10.4456 26.1213 10.7214 26.1213 11C26.1213 11.2786 26.0665 11.5544 25.9598 11.8118C25.8532 12.0691 25.697 12.303 25.5 12.5L13 25L9 26L10 22L22.5 9.49998Z" stroke="#B5B6C2" stroke-width="1.5" stroke-linecap="round" stroke-linejoin="round"/>
</svg>
