<svg width="40" height="40" viewBox="0 0 40 40" fill="none" xmlns="http://www.w3.org/2000/svg">
<rect y="0.000305176" width="40" height="40" rx="4" fill="#F8F8F8"/>
<path d="M22 10.0003H14C13.4696 10.0003 12.9609 10.211 12.5858 10.5861C12.2107 10.9612 12 11.4699 12 12.0003V28.0003C12 28.5307 12.2107 29.0394 12.5858 29.4145C12.9609 29.7896 13.4696 30.0003 14 30.0003H26C26.5304 30.0003 27.0391 29.7896 27.4142 29.4145C27.7893 29.0394 28 28.5307 28 28.0003V16.0003L22 10.0003Z" stroke="#003469" stroke-width="1.5" stroke-linecap="round" stroke-linejoin="round"/>
<path d="M22 10.0003V16.0003H28" stroke="#003469" stroke-width="1.5" stroke-linecap="round" stroke-linejoin="round"/>
<path d="M24 21.0003H16" stroke="#003469" stroke-width="1.5" stroke-linecap="round" stroke-linejoin="round"/>
<path d="M24 25.0003H16" stroke="#003469" stroke-width="1.5" stroke-linecap="round" stroke-linejoin="round"/>
<path d="M18 17.0003H17H16" stroke="#003469" stroke-width="1.5" stroke-linecap="round" stroke-linejoin="round"/>
</svg>
