<svg width="36" height="36" viewBox="0 0 36 36" fill="none" xmlns="http://www.w3.org/2000/svg">
<path d="M0 8C0 4.22876 0 2.34315 1.17157 1.17157C2.34315 0 4.22876 0 8 0H28C31.7712 0 33.6569 0 34.8284 1.17157C36 2.34315 36 4.22876 36 8V28C36 31.7712 36 33.6569 34.8284 34.8284C33.6569 36 31.7712 36 28 36H8C4.22876 36 2.34315 36 1.17157 34.8284C0 33.6569 0 31.7712 0 28V8Z" fill="#F3F5F8"/>
<path d="M27 21V25C27 25.5304 26.7893 26.0391 26.4142 26.4142C26.0391 26.7893 25.5304 27 25 27H11C10.4696 27 9.96086 26.7893 9.58579 26.4142C9.21071 26.0391 9 25.5304 9 25V21" stroke="#B5B6C2" stroke-width="1.5" stroke-linecap="round" stroke-linejoin="round"/>
<path d="M13 16L18 21L23 16" stroke="#B5B6C2" stroke-width="1.5" stroke-linecap="round" stroke-linejoin="round"/>
<path d="M18 21V9" stroke="#B5B6C2" stroke-width="1.5" stroke-linecap="round" stroke-linejoin="round"/>
</svg>
