<svg width="60" height="60" viewBox="0 0 60 60" fill="none" xmlns="http://www.w3.org/2000/svg">
<rect width="60" height="60" rx="6" fill="#F8F8F8"/>
<path d="M36.6665 16.6667H39.9998C40.8839 16.6667 41.7317 17.0179 42.3569 17.643C42.982 18.2681 43.3332 19.116 43.3332 20V43.3334C43.3332 44.2174 42.982 45.0653 42.3569 45.6904C41.7317 46.3155 40.8839 46.6667 39.9998 46.6667H19.9998C19.1158 46.6667 18.2679 46.3155 17.6428 45.6904C17.0177 45.0653 16.6665 44.2174 16.6665 43.3334V20C16.6665 19.116 17.0177 18.2681 17.6428 17.643C18.2679 17.0179 19.1158 16.6667 19.9998 16.6667H23.3332" stroke="#003469" stroke-width="1.5" stroke-linecap="round" stroke-linejoin="round"/>
<path d="M35.0002 13.3333H25.0002C24.0797 13.3333 23.3335 14.0795 23.3335 15V18.3333C23.3335 19.2538 24.0797 20 25.0002 20H35.0002C35.9206 20 36.6668 19.2538 36.6668 18.3333V15C36.6668 14.0795 35.9206 13.3333 35.0002 13.3333Z" stroke="#003469" stroke-width="1.5" stroke-linecap="round" stroke-linejoin="round"/>
</svg>
