<svg width="60" height="60" viewBox="0 0 60 60" fill="none" xmlns="http://www.w3.org/2000/svg">
<rect width="60" height="60" rx="6" fill="#F8F8F8"/>
<path d="M43.3332 45V41.6667C43.3332 39.8986 42.6308 38.2029 41.3805 36.9526C40.1303 35.7024 38.4346 35 36.6665 35H23.3332C21.5651 35 19.8694 35.7024 18.6191 36.9526C17.3689 38.2029 16.6665 39.8986 16.6665 41.6667V45" stroke="#003469" stroke-width="1.5" stroke-linecap="round" stroke-linejoin="round"/>
<path d="M30.0002 28.3333C33.6821 28.3333 36.6668 25.3486 36.6668 21.6667C36.6668 17.9848 33.6821 15 30.0002 15C26.3183 15 23.3335 17.9848 23.3335 21.6667C23.3335 25.3486 26.3183 28.3333 30.0002 28.3333Z" stroke="#003469" stroke-width="1.5" stroke-linecap="round" stroke-linejoin="round"/>
</svg>
