<svg width="36" height="36" viewBox="0 0 36 36" fill="none" xmlns="http://www.w3.org/2000/svg">
<path d="M0 8C0 4.22876 0 2.34315 1.17157 1.17157C2.34315 0 4.22876 0 8 0H28C31.7712 0 33.6569 0 34.8284 1.17157C36 2.34315 36 4.22876 36 8V28C36 31.7712 36 33.6569 34.8284 34.8284C33.6569 36 31.7712 36 28 36H8C4.22876 36 2.34315 36 1.17157 34.8284C0 33.6569 0 31.7712 0 28V8Z" fill="#F3F5F8"/>
<path d="M9 12H11H27" stroke="#B5B6C2" stroke-width="1.5" stroke-linecap="round" stroke-linejoin="round"/>
<path d="M14 12V10C14 9.46957 14.2107 8.96086 14.5858 8.58579C14.9609 8.21071 15.4696 8 16 8H20C20.5304 8 21.0391 8.21071 21.4142 8.58579C21.7893 8.96086 22 9.46957 22 10V12M25 12V26C25 26.5304 24.7893 27.0391 24.4142 27.4142C24.0391 27.7893 23.5304 28 23 28H13C12.4696 28 11.9609 27.7893 11.5858 27.4142C11.2107 27.0391 11 26.5304 11 26V12H25Z" stroke="#B5B6C2" stroke-width="1.5" stroke-linecap="round" stroke-linejoin="round"/>
<path d="M16 17V23" stroke="#B5B6C2" stroke-width="1.5" stroke-linecap="round" stroke-linejoin="round"/>
<path d="M20 17V23" stroke="#B5B6C2" stroke-width="1.5" stroke-linecap="round" stroke-linejoin="round"/>
</svg>
