<svg width="60" height="60" viewBox="0 0 60 60" fill="none" xmlns="http://www.w3.org/2000/svg">
<rect width="60" height="60" rx="6" fill="#F8F8F8"/>
<path d="M43.3335 21.6667H16.6668C14.8259 21.6667 13.3335 23.1591 13.3335 25V41.6667C13.3335 43.5076 14.8259 45 16.6668 45H43.3335C45.1744 45 46.6668 43.5076 46.6668 41.6667V25C46.6668 23.1591 45.1744 21.6667 43.3335 21.6667Z" stroke="#003469" stroke-width="1.5" stroke-linecap="round" stroke-linejoin="round"/>
<path d="M36.6668 45V18.3333C36.6668 17.4493 36.3156 16.6014 35.6905 15.9763C35.0654 15.3512 34.2176 15 33.3335 15H26.6668C25.7828 15 24.9349 15.3512 24.3098 15.9763C23.6847 16.6014 23.3335 17.4493 23.3335 18.3333V45" stroke="#003469" stroke-width="1.5" stroke-linecap="round" stroke-linejoin="round"/>
</svg>
